# xmcd
#
# Track frame offsets: 
#        150
#        18648
#        42057
#        56511
#        70729
#        94054
#        112317
#        127214
#        144333
#        162615
#        177435
#        191219
#
# Disc length: 2779 seconds
#
# Revision: 2
# Processed by: cddbd v1.5.2PL0 Copyright (c) Steve Scherf et al.
# Submitted via: ExactAudioCopy v0.95b4
#
DISCID=b60ad90c
DTITLE=Omar Kent Dykes and Jimmie Vaughan - Jimmy Reed Highway
DYEAR=2007
DGENRE=Blues
TTITLE0=Jimmy Reed Highway
TTITLE1=Baby What You Want Me to Do
TTITLE2=Big Boss Man
TTITLE3=Good Lover
TTITLE4=Caress Me Baby
TTITLE5=Aw Shucks, Hush Your Mouth
TTITLE6=You Upset My Mind
TTITLE7=I'll Change My Style
TTITLE8=Bad Boy
TTITLE9=Baby What's Wrong
TTITLE10=Hush Hush
TTITLE11=You Made Me Love
EXTD=Ruf Records
EXTT0=
EXTT1=
EXTT2=
EXTT3=
EXTT4=
EXTT5=
EXTT6=
EXTT7=
EXTT8=
EXTT9=
EXTT10=
EXTT11=
PLAYORDER=
